<?xml version="1.0" encoding="UTF-8"?>
<svg width="12px" height="12px" viewBox="0 0 12 12" version="1.1" xmlns="http://www.w3.org/2000/svg" xmlns:xlink="http://www.w3.org/1999/xlink">
    <title>排序-icon</title>
    <g id="排序-icon" stroke="none" stroke-width="1" fill="none" fill-rule="evenodd">
        <g transform="translate(6.000000, 6.000000) rotate(90.000000) translate(-6.000000, -6.000000) translate(0.000000, -0.000000)" fill="#4E6EF2" fill-rule="nonzero" id="形状结合">
            <path d="M3.63550071,0 L4.3001487,0.895691189 L1.74914176,2.64928186 L11.9723502,2.64928186 L11.9723502,3.75 L0.857627735,3.75 C0.383973016,3.75 0,3.38039378 0,2.9244614 C0,2.6756267 0.116520255,2.44108861 0.315299587,2.28493205 L0.359141739,2.25269301 L3.63550071,0 Z M8.36449929,12 L7.6998513,11.1043088 L10.2508582,9.35071814 L0.0276497696,9.35071814 L0.0276497696,8.25 L11.1423723,8.25 C11.616027,8.25 12,8.61960622 12,9.0755386 C12,9.3243733 11.8834797,9.55891139 11.6847004,9.71506795 L11.6408583,9.74730699 L8.36449929,12 Z"></path>
        </g>
    </g>
</svg>